<svg xmlns="http://www.w3.org/2000/svg" width="97.3" height="57.686" viewBox="0 0 97.3 57.686">
  <g id="logo" transform="translate(-361.39 -749.642)">
    <g id="Grupo_5" data-name="Grupo 5" transform="translate(361.538 749.642)">
      <path id="Caminho_2" data-name="Caminho 2" d="M1031.053,813.516V801.222c0-.319.007-.638,0-.957,0-.386.17-.592.572-.58.182,0,.365,0,.546,0q6.693.014,13.387.033a21.191,21.191,0,0,1,5.006.546,6.1,6.1,0,0,1,4.886,5.231,33.215,33.215,0,0,1,.384,4.891,93.053,93.053,0,0,1-.183,10.1,11.522,11.522,0,0,1-.4,2.139,5.472,5.472,0,0,1-3.713,3.869,16.819,16.819,0,0,1-4.541.852c-4.592.322-9.191.164-13.788.2-.5,0-1-.014-1.5,0-.455.014-.678-.172-.66-.639.012-.318,0-.638,0-.957Zm9.063.015c0,1.912-.012,3.824.006,5.736.007.811.056.868.856.877a18.921,18.921,0,0,0,3.133-.116c1.729-.269,2.288-.789,2.488-2.508a9.4,9.4,0,0,0,.032-1.091q.005-2.8,0-5.6a10.173,10.173,0,0,0-.06-1.5,2.253,2.253,0,0,0-2.344-2.2c-1.134-.081-2.276-.034-3.413-.068-.538-.017-.707.223-.7.734C1040.127,809.707,1040.117,811.619,1040.116,813.531Z" transform="translate(-1007.284 -799.677)" fill="#84e"/>
      <path id="Caminho_3" data-name="Caminho 3" d="M828.318,813.5V801.208c0-.319.007-.638,0-.957,0-.381.149-.6.559-.586.273.008.546,0,.819,0h17.348c1.488,0,1.451-.094,1.446,1.379-.006,1.549.01,3.1-.006,4.645-.009.876-.048.918-.936.922-2.732.013-5.464,0-8.2,0-.319,0-.638-.01-.956,0-.757.03-.8.05-.816.755-.023.864.009,1.73-.009,2.6-.012.531.23.723.74.712.819-.019,1.639,0,2.458,0,2.095,0,4.189-.008,6.284,0,.923.006.941.025.951.891.015,1.457.018,2.914,0,4.372-.012.855-.068.919-.959.925-2.6.018-5.191,0-7.787.009-1.851.007-1.693-.214-1.68,1.674.015,2.265-.319,1.919,1.948,1.937,2.641.02,5.281,0,7.923.008,1.046,0,1.058.02,1.066,1.054q.016,2.458,0,4.918c-.008,1.022-.032,1.053-1.1,1.055-3.87.011-7.741,0-11.611,0-2.14,0-4.28.006-6.42,0-1.046,0-1.061-.016-1.062-1.04q-.01-5.8,0-11.611Z" transform="translate(-828.317 -799.659)" fill="#84e"/>
      <path id="Caminho_4" data-name="Caminho 4" d="M1488.433,799.657c3.095,0,6.191-.006,9.286,0,1.116,0,1.151.038,1.161,1.153.015,1.866.017,3.733,0,5.6-.009.846-.1.925-.958.937-1.41.019-2.822-.008-4.233.013-.739.01-.772.045-.784.79-.021,1.366-.007,2.732-.007,4.1v13.519c0,.319-.014.638,0,.955.028.593-.27.8-.831.8-1.5-.013-3,0-4.506,0-.956,0-1.912.015-2.868-.006-.787-.018-.812-.061-.844-.879-.011-.273,0-.546,0-.819V809.29c0-.227,0-.455,0-.682-.02-1.242-.02-1.246-1.328-1.253-1.274-.006-2.55.013-3.823-.008-.737-.013-.78-.048-.787-.791q-.028-3,0-6.008c.007-.848.045-.878.971-.885,1.821-.014,3.641,0,5.462,0Z" transform="translate(-1401.739 -799.654)" fill="#84e"/>
      <g id="Grupo_4" data-name="Grupo 4" transform="translate(51.903 0)">
        <path id="Caminho_5" data-name="Caminho 5" d="M1281.593,799.657c3.1,0,6.191-.006,9.286,0,1.116,0,1.151.038,1.161,1.153.015,1.866.018,3.733,0,5.6-.009.846-.1.925-.958.937-1.411.019-2.822-.008-4.234.013-.739.01-.772.045-.784.79-.021,1.366-.007,2.732-.007,4.1v13.519c0,.319-.014.638,0,.955.028.593-.27.8-.831.8-1.5-.013-3,0-4.507,0-.955,0-1.912.015-2.867-.006-.787-.018-.812-.061-.844-.879-.01-.273,0-.546,0-.819V809.29c0-.227,0-.455,0-.682-.02-1.242-.02-1.246-1.328-1.253-1.274-.006-2.55.013-3.823-.008-.737-.013-.78-.048-.787-.791q-.028-3,0-6.008c.007-.848.045-.878.971-.885,1.821-.014,3.641,0,5.462,0Z" transform="translate(-1271.051 -799.654)" fill="#84e"/>
        <path id="Caminho_6" data-name="Caminho 6" d="M1281.508,828.741c-3.1,0-6.191.006-9.286,0-1.116,0-1.151-.037-1.161-1.152-.015-1.866-.018-3.733,0-5.6.009-.847.1-.925.958-.937,1.41-.019,2.822.008,4.233-.013.739-.011.772-.045.784-.79.021-1.366.007-2.731.007-4.1V802.63c0-.319.014-.638,0-.955-.028-.593.27-.8.831-.8,1.5.013,3,0,4.506,0,.956,0,1.912-.015,2.868.006.786.018.812.061.844.879.01.273,0,.546,0,.819v16.523c0,.228,0,.455,0,.682.02,1.241.02,1.246,1.328,1.253,1.274.006,2.55-.013,3.823.008.737.013.78.048.787.791q.028,3,0,6.008c-.007.848-.045.878-.971.885-1.821.014-3.641,0-5.462,0Z" transform="translate(-1271.049 -800.731)" fill="#84e"/>
      </g>
    </g>
    <g id="Grupo_6" data-name="Grupo 6" transform="translate(361.39 784.069)">
      <path id="Caminho_7" data-name="Caminho 7" d="M1152.176,1104.995c0,1.43.008,2.861,0,4.292a11.383,11.383,0,0,1-.394,2.6,5.414,5.414,0,0,1-4,4.13,12.867,12.867,0,0,1-3.031.5c-1.87.087-3.742.082-5.612,0a14.95,14.95,0,0,1-2.713-.417,5.569,5.569,0,0,1-4.5-4.822,14.391,14.391,0,0,1-.281-2.732c.018-2.6,0-5.21.029-7.815a10.361,10.361,0,0,1,.564-3.234,5.326,5.326,0,0,1,3.675-3.489,12.666,12.666,0,0,1,3.018-.563,28.668,28.668,0,0,1,8.319.38,5.729,5.729,0,0,1,4.713,5.014,28.32,28.32,0,0,1,.252,4.386c.011.587,0,1.175,0,1.761Zm-7.323.025a29.728,29.728,0,0,0-.154-4.06,1.383,1.383,0,0,0-1.1-1.223,7.069,7.069,0,0,0-3.372,0,1.335,1.335,0,0,0-1.082,1.23,12.144,12.144,0,0,0-.148,1.639c.014,1.466.008,2.934,0,4.4a10.551,10.551,0,0,0,.129,1.86c.182,1.034.531,1.413,1.58,1.484a17.46,17.46,0,0,0,2.417,0c1.041-.074,1.4-.459,1.581-1.489A28.41,28.41,0,0,0,1144.853,1105.019Z" transform="translate(-1095.939 -1093.327)" fill="#84e"/>
      <path id="Caminho_8" data-name="Caminho 8" d="M839.555,1099.285a16.661,16.661,0,0,0-4.138,0,1.254,1.254,0,0,0-1.1,1.745,1.02,1.02,0,0,0,.754.723c.735.223,1.477.423,2.218.63.776.217,1.562.4,2.327.651a5.7,5.7,0,0,1,4.224,5.321,11.274,11.274,0,0,1-.251,3.606,5.475,5.475,0,0,1-4.4,4.26,11.975,11.975,0,0,1-2.614.327c-2.608.034-9.157,0-9.21,0,.006-1.137-.045-4.068-.023-5.205.013-.726.028-.75.744-.74,2.127.028,4.253.08,6.38.118a4,4,0,0,0,1.2-.106c.7-.2.9-.391.981-1.007.116-.9-.063-1.391-.675-1.7a5.2,5.2,0,0,0-1.475-.419c-.9-.163-1.816-.276-2.7-.517a5.633,5.633,0,0,1-4.157-3.27,6.509,6.509,0,0,1-.375-1.259,10.549,10.549,0,0,1,.195-5.008,5.417,5.417,0,0,1,4.642-3.854,26.034,26.034,0,0,1,6.8-.088c1.021.094,2.04.216,3.058.34.783.095.82.128.824.859q.007,1.982-.028,3.964c-.011.6-.032.62-.632.627C841.129,1099.294,840.138,1099.285,839.555,1099.285Z" transform="translate(-827.055 -1093.314)" fill="#84e"/>
      <path id="Caminho_9" data-name="Caminho 9" d="M985.366,1096.268c2.491,0,4.981,0,7.472,0,.9,0,.927.031.934.927.012,1.5.014,3,0,4.505-.008.681-.08.745-.77.754-1.135.015-2.271-.007-3.407.011-.594.009-.621.036-.631.635-.018,1.1-.006,2.2-.006,3.3v10.879c0,.257-.012.514,0,.769.022.477-.217.647-.668.642-1.209-.01-2.417,0-3.626,0-.769,0-1.539.013-2.307,0-.633-.014-.653-.049-.68-.707-.008-.219,0-.44,0-.659v-13.3c0-.183,0-.366,0-.55-.015-1-.016-1-1.069-1.008-1.026,0-2.052.01-3.077-.006-.593-.009-.627-.039-.633-.637q-.023-2.418,0-4.835c.006-.682.036-.707.781-.713,1.465-.012,2.931,0,4.4,0Z" transform="translate(-959.32 -1095.92)" fill="#84e"/>
      <path id="Caminho_10" data-name="Caminho 10" d="M1345.836,1107.488c.558.155,1.129.276,1.673.472a3.992,3.992,0,0,1,2.831,3.718c.1,1.533.028,3.078.054,4.617.01.663-.3.911-.938.907-1.934-.012-3.868-.023-5.8.007-.8.013-1.024-.359-1-1.087.033-1.025.033-2.053-.006-3.079-.049-1.317-.519-1.782-1.811-1.8a14.506,14.506,0,0,0-2.585.059c-.383.368-.252.828-.259,1.245-.019,1.224-.018,2.448-.006,3.671.006.6-.158.991-.857.987q-2.96-.019-5.92,0c-.616,0-.846-.314-.829-.886.006-.2,0-.395,0-.592q0-9.946,0-19.894c0-1.5.007-1.51,1.51-1.511q5.566,0,11.131,0a11,11,0,0,1,3.389.45,5.018,5.018,0,0,1,3.679,4.469,16.807,16.807,0,0,1,.046,3.311,4.64,4.64,0,0,1-3.724,4.592c-.186.054-.374.105-.561.158C1345.846,1107.361,1345.841,1107.425,1345.836,1107.488Zm-7.771-2.087a14.131,14.131,0,0,0,3.271.073,1.2,1.2,0,0,0,1.189-1.109,11.318,11.318,0,0,0,.032-3.178.966.966,0,0,0-.917-.925,13.768,13.768,0,0,0-3.573.021C1338.065,1102.008,1338.065,1103.645,1338.065,1105.4Z" transform="translate(-1271.371 -1094.198)" fill="#84e"/>
      <path id="Caminho_11" data-name="Caminho 11" d="M1518.27,1108.261v-9.893c0-.257.006-.514,0-.769,0-.306.12-.482.45-.471.219.007.44,0,.66,0h13.96c1.2,0,1.168-.075,1.163,1.109,0,1.246.008,2.491,0,3.737-.007.7-.039.739-.753.742-2.2.01-4.4,0-6.6,0-.257,0-.514-.008-.769,0-.609.025-.641.041-.656.607-.019.7.007,1.393-.007,2.088-.01.428.185.583.6.572.659-.016,1.319,0,1.979,0,1.686,0,3.372-.007,5.056,0,.742,0,.759.02.766.718q.019,1.758,0,3.517c-.009.688-.055.74-.771.745-2.088.014-4.177,0-6.266.008-1.49.006-1.362-.171-1.352,1.347.013,1.823-.257,1.544,1.569,1.558,2.126.016,4.251,0,6.375.006.842,0,.851.015.857.849q.014,1.978,0,3.958c-.007.823-.026.846-.888.849-3.115.008-6.228,0-9.343,0-1.722,0-3.444,0-5.166,0-.842,0-.854-.013-.855-.837q-.009-4.672,0-9.344C1518.27,1108.994,1518.27,1108.627,1518.27,1108.261Z" transform="translate(-1437.236 -1096.676)" fill="#84e"/>
    </g>
  </g>
</svg>
