<svg xmlns="http://www.w3.org/2000/svg" width="77.928" height="31.925" viewBox="0 0 77.928 31.925">
  <g id="logo" transform="translate(-299.548 -743)">
    <g id="Grupo_3" data-name="Grupo 3" transform="translate(299.548 743)">
      <g id="Grupo_1" data-name="Grupo 1" transform="translate(0 0)">
        <rect id="Retângulo_1" data-name="Retângulo 1" width="25.136" height="1.148" transform="translate(0.8 8.838)"/>
        <rect id="Retângulo_2" data-name="Retângulo 2" width="25.136" height="1.148" transform="translate(0.714 30.76)"/>
        <rect id="Retângulo_3" data-name="Retângulo 3" width="1.148" height="22.503" transform="translate(24.79 9.428) rotate(-1.461)"/>
        <rect id="Retângulo_4" data-name="Retângulo 4" width="22.51" height="1.148" transform="translate(0 31.884) rotate(-87.96)"/>
        <path id="Caminho_1" data-name="Caminho 1" d="M406.96,750.116a7.116,7.116,0,0,1,14.232,0m-1.148,0a5.968,5.968,0,0,0-11.936,0" transform="translate(-400.794 -743)"/>
      </g>
      <g id="Grupo_2" data-name="Grupo 2" transform="translate(6.081 14.462)">
        <circle id="Elipse_1" data-name="Elipse 1" cx="0.918" cy="0.918" r="0.918"/>
        <circle id="Elipse_2" data-name="Elipse 2" cx="0.918" cy="0.918" r="0.918" transform="translate(12.51)"/>
      </g>
    </g>
    <g id="Grupo_5" data-name="Grupo 5" transform="translate(329.903 746.252)">
      <path id="Caminho_2" data-name="Caminho 2" d="M1031.052,806.455v-6.02c0-.156,0-.313,0-.469,0-.189.083-.29.28-.284.089,0,.179,0,.268,0q3.277.007,6.555.016a10.37,10.37,0,0,1,2.451.267,2.989,2.989,0,0,1,2.393,2.562,16.292,16.292,0,0,1,.188,2.395,45.477,45.477,0,0,1-.09,4.945,5.62,5.62,0,0,1-.2,1.048,2.68,2.68,0,0,1-1.818,1.894,8.227,8.227,0,0,1-2.224.417c-2.249.158-4.5.08-6.752.1-.245,0-.491-.007-.736,0-.223.007-.332-.084-.323-.313.006-.156,0-.312,0-.469Zm4.438.008c0,.936-.006,1.872,0,2.809,0,.4.027.425.419.43a9.278,9.278,0,0,0,1.534-.057c.847-.131,1.121-.386,1.219-1.228a4.7,4.7,0,0,0,.015-.534q0-1.371,0-2.743a4.986,4.986,0,0,0-.029-.734,1.1,1.1,0,0,0-1.148-1.078c-.555-.04-1.114-.017-1.671-.033-.263-.008-.346.109-.344.359C1035.5,804.59,1035.491,805.526,1035.491,806.463Z" transform="translate(-1019.413 -799.679)"/>
      <path id="Caminho_3" data-name="Caminho 3" d="M828.318,806.439v-6.02c0-.156,0-.312,0-.469,0-.187.073-.293.274-.287.134,0,.267,0,.4,0h8.5c.728,0,.71-.046.708.675,0,.758.005,1.516,0,2.274,0,.429-.024.45-.458.451-1.338.006-2.676,0-4.013,0-.156,0-.312-.005-.469,0-.371.015-.39.025-.4.37-.011.423,0,.847,0,1.271-.006.26.112.354.362.349.4-.009.8,0,1.2,0,1.026,0,2.051,0,3.077,0,.452,0,.461.012.466.436.007.714.009,1.427,0,2.141-.006.419-.033.45-.47.453-1.271.009-2.542,0-3.813,0-.907,0-.829-.1-.823.82.007,1.109-.156.94.954.948,1.293.01,2.586,0,3.88,0,.512,0,.518.01.522.516q.008,1.2,0,2.408c0,.5-.016.515-.54.517-1.9.005-3.791,0-5.686,0-1.048,0-2.1,0-3.144,0-.512,0-.52-.008-.52-.509q0-2.843,0-5.686Z" transform="translate(-828.317 -799.659)"/>
      <path id="Caminho_4" data-name="Caminho 4" d="M1483.053,799.656c1.516,0,3.032,0,4.547,0,.547,0,.564.019.568.564q.011,1.371,0,2.742c0,.414-.048.453-.469.459-.691.009-1.382,0-2.073.006-.362.005-.379.022-.384.387-.01.669,0,1.337,0,2.006v6.62c0,.156-.007.312,0,.468.014.291-.132.394-.407.391-.735-.006-1.471,0-2.207,0-.468,0-.936.008-1.4,0-.385-.009-.4-.03-.413-.431-.005-.134,0-.267,0-.4v-8.091c0-.111,0-.223,0-.334-.01-.608-.01-.61-.65-.614-.624,0-1.249.006-1.872,0-.361-.006-.382-.023-.385-.387q-.014-1.471,0-2.942c0-.415.022-.43.475-.433.891-.007,1.783,0,2.675,0Z" transform="translate(-1440.601 -799.654)"/>
      <g id="Grupo_4" data-name="Grupo 4" transform="translate(25.416 0)">
        <path id="Caminho_5" data-name="Caminho 5" d="M1276.214,799.656c1.515,0,3.031,0,4.547,0,.547,0,.564.019.568.564.008.914.009,1.828,0,2.742,0,.414-.048.453-.469.459-.691.009-1.382,0-2.073.006-.362.005-.378.022-.384.387-.011.669,0,1.337,0,2.006v6.62c0,.156-.007.312,0,.468.014.291-.132.394-.407.391-.735-.006-1.471,0-2.206,0-.469,0-.937.008-1.4,0-.385-.009-.4-.03-.414-.431-.005-.134,0-.267,0-.4v-8.091c0-.111,0-.223,0-.334-.01-.608-.01-.61-.65-.614-.624,0-1.249.006-1.872,0-.361-.006-.382-.023-.385-.387q-.014-1.471,0-2.942c0-.415.022-.43.475-.433.892-.007,1.783,0,2.675,0Z" transform="translate(-1271.051 -799.654)"/>
        <path id="Caminho_6" data-name="Caminho 6" d="M1276.17,814.52c-1.516,0-3.032,0-4.547,0-.547,0-.564-.018-.569-.564q-.011-1.371,0-2.742c0-.415.048-.453.469-.458.691-.009,1.382,0,2.073-.006.362-.005.378-.022.384-.387.01-.669,0-1.338,0-2.006v-6.62c0-.156.007-.312,0-.468-.014-.29.132-.393.407-.391.736.006,1.471,0,2.207,0,.468,0,.936-.008,1.4,0,.385.009.4.03.413.431.005.134,0,.267,0,.4V809.8c0,.111,0,.223,0,.334.01.608.01.61.651.614.624,0,1.248-.006,1.872,0,.361.006.382.024.385.387q.013,1.471,0,2.942c0,.415-.022.43-.475.433-.892.007-1.783,0-2.675,0Z" transform="translate(-1271.049 -800.805)"/>
      </g>
    </g>
    <g id="Grupo_6" data-name="Grupo 6" transform="translate(329.831 763.11)">
      <path id="Caminho_7" data-name="Caminho 7" d="M1141.7,1099.041c0,.7,0,1.4,0,2.1a5.591,5.591,0,0,1-.193,1.274,2.651,2.651,0,0,1-1.958,2.023,6.319,6.319,0,0,1-1.485.246c-.916.043-1.833.04-2.748,0a7.32,7.32,0,0,1-1.328-.2,2.727,2.727,0,0,1-2.2-2.361,7.033,7.033,0,0,1-.138-1.337c.008-1.276,0-2.551.014-3.827a5.087,5.087,0,0,1,.276-1.583,2.609,2.609,0,0,1,1.8-1.708,6.211,6.211,0,0,1,1.478-.276,14.035,14.035,0,0,1,4.074.186,2.805,2.805,0,0,1,2.308,2.455,13.9,13.9,0,0,1,.123,2.148c.005.288,0,.575,0,.862Zm-3.586.012a14.521,14.521,0,0,0-.075-1.988.676.676,0,0,0-.536-.6,3.461,3.461,0,0,0-1.651,0,.654.654,0,0,0-.53.6,6.014,6.014,0,0,0-.072.8c.007.719,0,1.437,0,2.155a5.154,5.154,0,0,0,.063.911c.089.506.26.692.774.727a8.532,8.532,0,0,0,1.184,0c.51-.036.684-.225.774-.729A13.867,13.867,0,0,0,1138.114,1099.053Z" transform="translate(-1114.162 -1093.328)"/>
      <path id="Caminho_8" data-name="Caminho 8" d="M833.176,1096.238a8.163,8.163,0,0,0-2.026,0,.614.614,0,0,0-.539.854.5.5,0,0,0,.369.354c.36.109.723.207,1.086.308.38.106.765.2,1.14.318a2.79,2.79,0,0,1,2.068,2.605,5.525,5.525,0,0,1-.123,1.766,2.681,2.681,0,0,1-2.157,2.086,5.851,5.851,0,0,1-1.28.16c-1.277.017-4.484,0-4.51,0,0-.557-.022-1.992-.011-2.549.006-.355.014-.367.365-.363,1.042.014,2.083.039,3.124.058a1.945,1.945,0,0,0,.588-.052c.344-.1.442-.192.48-.493.057-.443-.031-.681-.33-.835a2.545,2.545,0,0,0-.722-.205c-.441-.08-.889-.135-1.32-.253a2.757,2.757,0,0,1-2.036-1.6,3.175,3.175,0,0,1-.184-.617,5.169,5.169,0,0,1,.1-2.452,2.654,2.654,0,0,1,2.274-1.887,12.742,12.742,0,0,1,3.329-.043c.5.046,1,.105,1.5.166.383.047.4.063.4.421q0,.971-.014,1.941c-.005.3-.016.3-.31.307C833.947,1096.242,833.462,1096.238,833.176,1096.238Z" transform="translate(-827.055 -1093.314)"/>
      <path id="Caminho_9" data-name="Caminho 9" d="M981.038,1096.267c1.22,0,2.439,0,3.659,0,.44,0,.454.014.458.454.006.736.007,1.471,0,2.206,0,.334-.039.365-.377.369-.556.008-1.112,0-1.668.006-.291,0-.3.018-.309.311-.008.538,0,1.076,0,1.615v5.327c0,.126-.006.251,0,.376.011.234-.106.317-.327.314-.592,0-1.184,0-1.775,0-.377,0-.754.007-1.13,0-.31-.007-.32-.024-.333-.346,0-.107,0-.215,0-.323v-6.511c0-.09,0-.179,0-.269-.007-.489-.008-.491-.523-.494s-1,.005-1.507,0c-.291,0-.307-.019-.31-.312q-.011-1.184,0-2.367c0-.334.018-.346.383-.349.718-.006,1.435,0,2.152,0Z" transform="translate(-968.284 -1096.097)"/>
      <path id="Caminho_10" data-name="Caminho 10" d="M1337.947,1100.766c.273.076.553.135.819.232a1.955,1.955,0,0,1,1.386,1.82c.048.751.014,1.507.026,2.261.005.325-.149.446-.459.444-.947-.006-1.894-.012-2.841,0-.391.006-.5-.176-.49-.532.016-.5.016-1.005,0-1.508-.024-.644-.254-.872-.887-.883a7.1,7.1,0,0,0-1.266.029c-.188.18-.124.405-.127.61-.009.6-.009,1.2,0,1.8,0,.293-.078.485-.42.484-.966-.007-1.933-.005-2.9,0-.3,0-.414-.154-.405-.434,0-.1,0-.193,0-.29q0-4.87,0-9.741c0-.737,0-.74.74-.74q2.726,0,5.451,0a5.384,5.384,0,0,1,1.66.22,2.457,2.457,0,0,1,1.8,2.188,8.2,8.2,0,0,1,.023,1.621,2.272,2.272,0,0,1-1.823,2.248l-.275.078C1337.952,1100.7,1337.949,1100.735,1337.947,1100.766Zm-3.805-1.022a6.9,6.9,0,0,0,1.6.036.587.587,0,0,0,.582-.543,5.551,5.551,0,0,0,.015-1.556.473.473,0,0,0-.449-.453,6.757,6.757,0,0,0-1.75.01C1334.142,1098.082,1334.142,1098.884,1334.142,1099.744Z" transform="translate(-1301.483 -1094.258)"/>
      <path id="Caminho_11" data-name="Caminho 11" d="M1518.27,1102.577v-4.845c0-.125,0-.251,0-.377,0-.149.058-.236.22-.23.107,0,.215,0,.323,0h6.836c.586,0,.572-.037.57.543,0,.61,0,1.22,0,1.83,0,.345-.019.362-.368.364-1.076.005-2.153,0-3.23,0-.126,0-.251,0-.377,0-.3.012-.314.02-.321.3-.01.341,0,.682,0,1.022-.005.209.09.285.292.28.323-.007.646,0,.969,0,.825,0,1.651,0,2.476,0,.363,0,.371.01.375.352q.01.861,0,1.722c0,.337-.027.362-.378.365-1.022.007-2.046,0-3.069,0-.729,0-.667-.084-.662.659.006.893-.125.756.769.763,1.04.008,2.081,0,3.121,0,.412,0,.417.007.419.416q.007.969,0,1.938c0,.4-.013.415-.434.416-1.525,0-3.05,0-4.575,0-.844,0-1.687,0-2.53,0-.412,0-.417-.006-.418-.41q0-2.287,0-4.575C1518.27,1102.935,1518.27,1102.756,1518.27,1102.577Z" transform="translate(-1478.589 -1096.903)"/>
    </g>
  </g>
</svg>
