<svg width="7196" height="4669" viewBox="0 0 7196 4669" fill="none" xmlns="http://www.w3.org/2000/svg">
<path d="M2560.66 3725.37L2529 3837.82L2533.62 3837.49C2543.18 3817.38 2553.73 3805.51 2562.31 3805.51C2567.58 3805.51 2570.88 3808.81 2576.16 3814.08C2591.33 3828.92 2610.78 3837.49 2628.92 3837.49C2664.2 3837.49 2694.87 3806.17 2694.87 3770.55C2694.87 3737.58 2667.5 3719.11 2638.81 3700.64C2619.03 3688.11 2597.59 3674.26 2597.59 3652.83C2597.59 3630.07 2617.38 3611.94 2642.11 3611.94C2673.77 3611.94 2693.88 3637.66 2693.88 3677.56C2693.88 3687.12 2693.22 3693.72 2690.25 3708.89H2695.53L2719.6 3606.99H2714.99C2708.39 3624.14 2702.46 3631.06 2694.87 3631.06C2690.25 3631.06 2685.64 3626.78 2681.02 3622.16C2670.14 3611.61 2657.61 3606.66 2642.11 3606.66C2608.47 3606.66 2581.1 3635.02 2581.1 3669.64C2581.1 3685.47 2587.04 3698.33 2600.23 3712.18C2608.14 3719.77 2614.08 3724.06 2632.88 3736.59C2660.58 3755.05 2676.73 3765.94 2676.73 3791C2676.73 3813.75 2655.3 3831.89 2628.26 3831.89C2589.68 3831.89 2562.97 3799.9 2562.97 3754.06C2562.97 3746.15 2563.63 3739.55 2565.93 3725.37H2560.66Z" fill="white"/>
<path d="M2735.11 3694.38H2712.02L2710.04 3701.96H2733.46L2714 3774.18C2711.03 3785.72 2709.38 3795.61 2709.38 3804.19C2709.38 3822 2717.96 3834.53 2730.16 3834.53C2747.97 3834.53 2767.75 3809.14 2778.63 3772.53H2774.02C2763.14 3803.86 2745.33 3828.26 2733.46 3828.26C2729.17 3828.26 2726.86 3825.29 2726.86 3819.69C2726.86 3817.38 2727.19 3814.74 2727.85 3812.1L2757.2 3701.96H2783.25L2785.23 3694.38H2758.85L2774.35 3637.66H2750.27L2735.11 3694.38Z" fill="white"/>
<path d="M2791.75 3748.46C2800.33 3717.13 2817.14 3696.36 2833.3 3696.36C2839.57 3696.36 2843.2 3700.31 2843.2 3706.91C2843.2 3714.16 2839.9 3723.73 2831.32 3741.86C2818.79 3767.25 2814.18 3782.42 2814.18 3796.93C2814.18 3819.36 2826.05 3836.18 2842.21 3836.18C2866.94 3836.18 2886.07 3794.63 2897.94 3765.28C2897.61 3768.24 2897.28 3768.9 2896.62 3774.18C2893.98 3788.36 2892.66 3800.23 2892.66 3808.81C2892.66 3824.96 2899.92 3835.52 2911.13 3835.52C2929.59 3835.52 2946.41 3815.73 2958.94 3778.47H2953.67C2943.11 3809.14 2927.29 3829.25 2914.43 3829.25C2909.15 3829.25 2905.85 3824.96 2905.85 3818.7C2905.85 3814.41 2909.15 3798.58 2912.78 3786.38L2940.15 3692.07H2917.72L2903.54 3734.94C2886.4 3781.11 2877.49 3803.86 2861.66 3820.35C2856.06 3825.95 2848.47 3829.91 2842.54 3829.91C2834.95 3829.91 2830.34 3823.97 2830.34 3814.41C2830.34 3807.16 2833.63 3797.92 2841.88 3780.12C2854.41 3753.73 2859.35 3736.92 2859.35 3721.42C2859.35 3703.28 2849.79 3690.09 2835.61 3690.09C2822.75 3690.09 2811.21 3700.31 2804.94 3708.23C2795.71 3719.44 2792.41 3727.35 2786.81 3748.79L2791.75 3748.46Z" fill="white"/>
<path d="M3031.65 3695.04C3038.9 3695.04 3051.43 3696.69 3051.43 3730.98C3051.43 3776.82 3021.1 3830.24 2995.05 3830.24C2985.15 3830.24 2978.56 3821.34 2978.56 3807.82C2978.56 3786.38 2997.02 3724.39 3015.49 3703.28C3019.78 3698.33 3026.04 3695.37 3031.65 3695.04ZM3047.48 3615.23H3068.58C3079.46 3615.23 3084.74 3618.53 3084.74 3625.13C3084.74 3627.1 3084.41 3629.41 3083.75 3631.39L3057.37 3725.7C3054.4 3699.98 3046.82 3689.76 3030.66 3689.76C3007.25 3689.76 2959.76 3722.08 2959.76 3780.45C2959.76 3813.09 2974.27 3835.52 2995.37 3835.52C3013.51 3835.52 3024.72 3820.02 3036.6 3801.88L3041.21 3794.96C3040.55 3800.89 3040.22 3803.53 3040.22 3806.5C3040.22 3824.96 3046.82 3835.85 3058.36 3835.85C3072.54 3835.85 3084.74 3819.69 3090.68 3810.12C3097.93 3798.58 3101.56 3791 3108.48 3771.21H3103.54C3089.36 3807.49 3075.18 3827.6 3063.64 3827.6C3059.35 3827.6 3057.04 3824.3 3057.04 3817.38C3057.04 3812.76 3058.69 3804.19 3061 3795.94L3114.75 3606.66H3106.18C3093.97 3608.64 3080.78 3610.29 3064.63 3610.29H3048.8L3047.48 3615.23Z" fill="white"/>
<path d="M3190.03 3610.62C3180.8 3610.62 3173.55 3617.87 3173.55 3627.1C3173.55 3636.34 3180.8 3643.59 3190.03 3643.59C3198.94 3643.59 3206.19 3636.34 3206.19 3627.1C3206.19 3617.87 3198.94 3610.62 3190.03 3610.62ZM3121.44 3746.48C3133.97 3712.84 3145.85 3696.36 3157.72 3696.36C3163.98 3696.36 3167.28 3700.31 3167.28 3707.24C3167.28 3713.17 3163.65 3724.06 3155.74 3741.53C3142.55 3769.56 3136.28 3790.67 3136.28 3805.18C3136.28 3824.3 3143.87 3835.85 3156.73 3835.85C3176.18 3835.85 3195.64 3811.44 3206.19 3773.52H3201.58C3189.04 3808.48 3173.55 3829.58 3160.03 3829.58C3155.74 3829.58 3152.77 3825.95 3152.77 3820.35C3152.77 3812.76 3156.73 3800.23 3165.3 3780.12C3177.17 3752.09 3181.79 3736.59 3181.79 3722.08C3181.79 3702.29 3173.22 3690.42 3159.04 3690.42C3149.14 3690.42 3139.58 3698.66 3131.67 3711.85C3125.4 3722.41 3122.43 3728.67 3116.5 3746.48H3121.44Z" fill="white"/>
<path d="M3266.72 3835.85C3301.67 3835.85 3344.87 3795.94 3344.87 3750.44C3344.87 3715.48 3324.1 3689.76 3295.74 3689.76C3256.49 3689.76 3216.59 3732.63 3216.59 3775.17C3216.59 3806.83 3236.38 3835.85 3266.72 3835.85ZM3266.06 3830.57C3251.88 3831.56 3237.04 3822 3237.04 3799.57C3237.04 3771.87 3256.49 3695.04 3294.75 3695.04C3313.54 3695.04 3324.43 3706.58 3324.43 3726.36C3324.43 3755.05 3304.64 3828.59 3266.06 3830.57Z" fill="white"/>
<path d="M3589.64 3752.75C3579.08 3780.45 3573.48 3790.01 3558.97 3806.17C3543.8 3822.99 3525 3832.22 3506.21 3832.22C3474.22 3832.22 3454.1 3812.1 3454.1 3779.79C3454.1 3737.25 3482.46 3658.43 3508.18 3630.07C3517.42 3619.52 3534.24 3612.27 3549.08 3612.27C3562.27 3612.27 3573.15 3616.88 3582.71 3626.78C3601.51 3645.9 3602.17 3671.95 3601.18 3713.83L3606.12 3713.5L3626.57 3607.32H3621.29C3614.7 3623.81 3605.14 3637 3599.2 3637C3597.22 3637 3596.23 3636.01 3594.25 3632.71C3584.69 3616.55 3567.54 3606.99 3548.75 3606.99C3493.68 3606.99 3426.4 3685.14 3426.4 3748.79C3426.4 3797.92 3462.02 3837.49 3506.54 3837.49C3527.64 3837.49 3548.09 3826.94 3565.56 3806.83C3580.4 3789.68 3585.68 3779.79 3594.58 3752.75H3589.64Z" fill="white"/>
<path d="M3663.92 3835.85C3698.87 3835.85 3742.07 3795.94 3742.07 3750.44C3742.07 3715.48 3721.3 3689.76 3692.94 3689.76C3653.69 3689.76 3613.79 3732.63 3613.79 3775.17C3613.79 3806.83 3633.58 3835.85 3663.92 3835.85ZM3663.26 3830.57C3649.08 3831.56 3634.24 3822 3634.24 3799.57C3634.24 3771.87 3653.69 3695.04 3691.95 3695.04C3710.74 3695.04 3721.62 3706.58 3721.62 3726.36C3721.62 3755.05 3701.84 3828.59 3663.26 3830.57Z" fill="white"/>
<path d="M3813.05 3771.87C3805.47 3805.18 3789.64 3829.58 3776.12 3829.58C3771.17 3829.58 3768.53 3826.61 3768.53 3820.02C3768.53 3817.05 3769.52 3811.77 3770.84 3806.83L3828.22 3606H3823.93C3810.41 3608.31 3787.99 3610.29 3782.38 3610.29H3764.57L3762.93 3615.23H3773.81C3793.26 3615.23 3797.22 3618.53 3797.22 3625.13C3797.22 3628.09 3796.89 3631.72 3795.9 3635.02L3756.66 3773.19C3753.69 3783.74 3752.04 3794.3 3752.04 3804.19C3752.04 3823.97 3759.96 3835.85 3773.15 3835.85C3791.94 3835.85 3810.08 3810.12 3818 3771.87H3813.05Z" fill="white"/>
<path d="M3894.78 3771.87C3887.2 3805.18 3871.37 3829.58 3857.85 3829.58C3852.9 3829.58 3850.26 3826.61 3850.26 3820.02C3850.26 3817.05 3851.25 3811.77 3852.57 3806.83L3909.95 3606H3905.66C3892.14 3608.31 3869.72 3610.29 3864.11 3610.29H3846.31L3844.66 3615.23H3855.54C3875 3615.23 3878.95 3618.53 3878.95 3625.13C3878.95 3628.09 3878.62 3631.72 3877.63 3635.02L3838.39 3773.19C3835.42 3783.74 3833.78 3794.3 3833.78 3804.19C3833.78 3823.97 3841.69 3835.85 3854.88 3835.85C3873.68 3835.85 3891.81 3810.12 3899.73 3771.87H3894.78Z" fill="white"/>
<path d="M3944.04 3767.91C3948.99 3750.11 3953.94 3732.63 3962.84 3717.46C3971.08 3703.28 3982.63 3694.38 3992.85 3694.38C4002.41 3694.38 4008.68 3700.97 4008.68 3710.54C4008.68 3722.74 4003.07 3734.28 3991.2 3745.49C3978.67 3757.36 3967.79 3762.97 3944.04 3767.91ZM4019.23 3788.03C4009.34 3814.41 3989.88 3830.57 3967.46 3830.57C3948.99 3830.57 3937.12 3820.35 3937.12 3804.52C3937.12 3794.96 3939.1 3784.07 3942.72 3774.18C3965.15 3769.56 4017.91 3759.34 4017.91 3717.13C4017.91 3699.98 4007.69 3689.43 3991.2 3689.43C3957.56 3689.43 3916.67 3739.22 3916.67 3780.45C3916.67 3812.76 3937.45 3835.85 3966.14 3835.85C3982.3 3835.85 3997.47 3828.59 4009.34 3815.4C4016.59 3807.16 4019.56 3801.88 4024.18 3788.03H4019.23Z" fill="white"/>
<path d="M4143.23 3773.19C4135.97 3792.32 4132.01 3799.24 4122.12 3810.12C4110.25 3823.31 4096.07 3830.57 4082.88 3830.57C4067.05 3830.57 4057.82 3820.02 4057.82 3801.55C4057.82 3781.76 4073.65 3691.74 4114.87 3691.74C4120.8 3691.74 4124.1 3693.72 4124.1 3698C4124.1 3699.65 4122.78 3701.63 4119.48 3704.93C4114.21 3710.54 4111.9 3714.82 4111.9 3719.44C4111.9 3728.01 4117.51 3734.28 4125.09 3734.28C4134.32 3734.28 4141.25 3726.03 4141.25 3714.49C4141.25 3698 4130.04 3686.79 4113.55 3686.79C4076.94 3686.79 4035.72 3735.27 4035.72 3778.14C4035.72 3810.45 4055.51 3835.85 4081.23 3835.85C4097.39 3835.85 4114.54 3826.61 4128.39 3810.78C4138.61 3798.91 4142.57 3791.99 4148.83 3773.19H4143.23Z" fill="white"/>
<path d="M4197.99 3694.38H4174.9L4172.92 3701.96H4196.34L4176.88 3774.18C4173.91 3785.72 4172.26 3795.61 4172.26 3804.19C4172.26 3822 4180.84 3834.53 4193.04 3834.53C4210.85 3834.53 4230.63 3809.14 4241.51 3772.53H4236.9C4226.02 3803.86 4208.21 3828.26 4196.34 3828.26C4192.05 3828.26 4189.74 3825.29 4189.74 3819.69C4189.74 3817.38 4190.07 3814.74 4190.73 3812.1L4220.08 3701.96H4246.13L4248.11 3694.38H4221.73L4237.23 3637.66H4213.15L4197.99 3694.38Z" fill="white"/>
<path d="M4329.07 3610.62C4319.84 3610.62 4312.59 3617.87 4312.59 3627.1C4312.59 3636.34 4319.84 3643.59 4329.07 3643.59C4337.98 3643.59 4345.23 3636.34 4345.23 3627.1C4345.23 3617.87 4337.98 3610.62 4329.07 3610.62ZM4260.48 3746.48C4273.01 3712.84 4284.89 3696.36 4296.76 3696.36C4303.02 3696.36 4306.32 3700.31 4306.32 3707.24C4306.32 3713.17 4302.69 3724.06 4294.78 3741.53C4281.59 3769.56 4275.32 3790.67 4275.32 3805.18C4275.32 3824.3 4282.91 3835.85 4295.77 3835.85C4315.22 3835.85 4334.68 3811.44 4345.23 3773.52H4340.62C4328.09 3808.48 4312.59 3829.58 4299.07 3829.58C4294.78 3829.58 4291.81 3825.95 4291.81 3820.35C4291.81 3812.76 4295.77 3800.23 4304.34 3780.12C4316.21 3752.09 4320.83 3736.59 4320.83 3722.08C4320.83 3702.29 4312.26 3690.42 4298.08 3690.42C4288.18 3690.42 4278.62 3698.66 4270.71 3711.85C4264.44 3722.41 4261.47 3728.67 4255.54 3746.48H4260.48Z" fill="white"/>
<path d="M4405.76 3835.85C4440.71 3835.85 4483.91 3795.94 4483.91 3750.44C4483.91 3715.48 4463.14 3689.76 4434.78 3689.76C4395.54 3689.76 4355.63 3732.63 4355.63 3775.17C4355.63 3806.83 4375.42 3835.85 4405.76 3835.85ZM4405.1 3830.57C4390.92 3831.56 4376.08 3822 4376.08 3799.57C4376.08 3771.87 4395.54 3695.04 4433.79 3695.04C4452.58 3695.04 4463.47 3706.58 4463.47 3726.36C4463.47 3755.05 4443.68 3828.59 4405.1 3830.57Z" fill="white"/>
<path d="M4498.92 3742.85C4506.51 3724.06 4522.66 3695.04 4538.16 3695.04C4543.77 3695.04 4547.73 3699.32 4547.73 3705.92C4547.73 3709.55 4545.75 3716.47 4540.47 3734.94L4511.45 3832.55H4532.56L4545.75 3795.61C4568.83 3731.64 4593.23 3695.37 4613.02 3695.37C4618.63 3695.37 4622.91 3701.3 4622.91 3709.22C4622.91 3717.13 4619.95 3726.69 4611.04 3745.49C4598.84 3771.87 4593.89 3788.36 4593.89 3804.19C4593.89 3823.31 4602.47 3834.53 4616.98 3834.53C4636.76 3834.53 4655.89 3812.1 4667.1 3775.83L4662.16 3776.16C4651.27 3806.83 4634.13 3828.26 4619.62 3828.26C4613.68 3828.26 4610.05 3824.3 4610.05 3817.71C4610.05 3809.79 4613.02 3800.23 4621.59 3782.09C4633.47 3757.03 4638.08 3741.86 4638.08 3726.69C4638.08 3703.61 4628.19 3689.1 4613.02 3689.1C4585.32 3689.1 4563.56 3741.2 4555.31 3756.37C4557.62 3742.85 4572.13 3688.77 4540.47 3688.77C4523.32 3688.77 4503.54 3711.52 4493.65 3742.85H4498.92Z" fill="white"/>
<path d="M3192.53 4047.31H3168.16L3180.93 4012.81L3192.53 4047.31ZM3147.05 4073.8H3177.23V4072.22H3174.6C3167.53 4072.22 3163.2 4069.05 3163.2 4063.99C3163.2 4061.88 3164.25 4058.08 3166.36 4052.06L3167.1 4050.16H3193.59L3198.97 4066.2C3199.29 4067.26 3199.5 4068.21 3199.5 4069.26C3199.5 4071.16 3198.02 4072.22 3195.59 4072.22H3186.63V4073.8H3219.65V4072.22H3217.75C3212.16 4072.22 3211.21 4071.27 3208.26 4062.83L3187.36 4001.52H3185.78C3185.04 4004.89 3182.51 4009.01 3179.77 4011.01L3162.67 4057.23C3159.93 4064.62 3157.18 4072.01 3147.05 4072.22V4073.8Z" fill="white"/>
<path d="M3213.21 4004.05H3217.96C3221.44 4004.05 3223.44 4005.63 3224.6 4009.11L3247.08 4075.81H3248.35C3248.66 4071.48 3250.77 4066.73 3253.83 4063.99L3271.46 4018.08C3276.52 4005 3283.28 4004.37 3286.23 4004.05V4002.47H3257V4004.05H3261.01C3266.81 4004.05 3270.72 4007.32 3270.72 4012.28C3270.72 4015.34 3270.3 4016.5 3267.45 4023.89L3253.1 4061.14L3235.58 4009.11C3235.37 4008.59 3235.26 4007.85 3235.26 4007.11C3235.26 4005.21 3236.95 4004.05 3239.59 4004.05H3248.03V4002.47H3213.21V4004.05Z" fill="white"/>
<path d="M3323.1 4047.31H3298.72L3311.49 4012.81L3323.1 4047.31ZM3277.62 4073.8H3307.8V4072.22H3305.16C3298.09 4072.22 3293.76 4069.05 3293.76 4063.99C3293.76 4061.88 3294.82 4058.08 3296.93 4052.06L3297.67 4050.16H3324.16L3329.54 4066.2C3329.85 4067.26 3330.07 4068.21 3330.07 4069.26C3330.07 4071.16 3328.59 4072.22 3326.16 4072.22H3317.19V4073.8H3350.22V4072.22H3348.32C3342.73 4072.22 3341.78 4071.27 3338.82 4062.83L3317.93 4001.52H3316.35C3315.61 4004.89 3313.08 4009.01 3310.33 4011.01L3293.24 4057.23C3290.49 4064.62 3287.75 4072.01 3277.62 4072.22V4073.8Z" fill="white"/>
<path d="M3357.24 4073.8H3394.6V4072.22H3387.31C3384.04 4072.22 3382.04 4070 3382.04 4066.1V4010.17C3382.04 4006.27 3384.04 4004.05 3387.31 4004.05H3394.6V4002.47H3357.24V4004.05H3366.31C3369.59 4004.05 3371.49 4006.27 3371.49 4010.17V4066.1C3371.17 4070.32 3369.59 4072.22 3366.21 4072.22H3357.24V4073.8Z" fill="white"/>
<path d="M3403.7 4073.8H3466.8L3467.64 4045.94H3466.27C3463 4061.45 3452.55 4072.01 3440.52 4072.01H3433.03C3430.08 4072.01 3428.6 4070.21 3428.6 4066.63V4010.17C3428.6 4006.27 3430.5 4004.05 3433.88 4004.05H3441.16V4002.47H3403.8V4004.05H3412.88C3416.15 4004.05 3418.05 4006.27 3418.05 4010.17V4066.1C3417.73 4070.42 3416.15 4072.22 3412.77 4072.22H3403.7V4073.8Z" fill="white"/>
<path d="M3518.69 4047.31H3494.32L3507.08 4012.81L3518.69 4047.31ZM3473.21 4073.8H3503.39V4072.22H3500.75C3493.68 4072.22 3489.36 4069.05 3489.36 4063.99C3489.36 4061.88 3490.41 4058.08 3492.52 4052.06L3493.26 4050.16H3519.75L3525.13 4066.2C3525.45 4067.26 3525.66 4068.21 3525.66 4069.26C3525.66 4071.16 3524.18 4072.22 3521.75 4072.22H3512.78V4073.8H3545.81V4072.22H3543.91C3538.32 4072.22 3537.37 4071.27 3534.42 4062.83L3513.52 4001.52H3511.94C3511.2 4004.89 3508.67 4009.01 3505.92 4011.01L3488.83 4057.23C3486.09 4064.62 3483.34 4072.01 3473.21 4072.22V4073.8Z" fill="white"/>
<path d="M3577.63 4008.06C3577.63 4005.63 3578.58 4004.47 3580.37 4004.47H3589.98C3598.73 4004.47 3604.54 4010.59 3604.54 4019.88C3604.54 4029.48 3597.89 4035.39 3587.02 4035.39H3577.63V4008.06ZM3587.23 4037.08C3599.26 4037.08 3607.7 4044.25 3607.7 4054.6C3607.7 4064.94 3600.42 4072.01 3589.77 4072.01H3580.58C3578.37 4072.01 3577.63 4071.06 3577.63 4068.42V4037.08H3587.23ZM3551.99 4004.05H3561.91C3565.18 4004.05 3567.08 4006.27 3567.08 4010.17V4066.1C3567.08 4070 3565.07 4072.22 3561.8 4072.22H3551.99V4073.8H3588.92C3605.38 4073.8 3619.52 4065.15 3619.52 4054.91C3619.52 4048.16 3613.61 4043.73 3609.71 4041.51C3604.85 4038.77 3601.79 4037.71 3593.77 4036.34C3609.29 4032.44 3615.94 4027.26 3615.94 4018.82C3615.94 4009.64 3603.59 4002.47 3587.97 4002.47H3551.99V4004.05Z" fill="white"/>
<path d="M3628.86 4073.8H3691.97L3692.81 4045.94H3691.44C3688.17 4061.45 3677.72 4072.01 3665.69 4072.01H3658.2C3655.24 4072.01 3653.77 4070.21 3653.77 4066.63V4010.17C3653.77 4006.27 3655.67 4004.05 3659.04 4004.05H3666.32V4002.47H3628.97V4004.05H3638.04C3641.32 4004.05 3643.21 4006.27 3643.21 4010.17V4066.1C3642.9 4070.42 3641.32 4072.22 3637.94 4072.22H3628.86V4073.8Z" fill="white"/>
<path d="M3700.07 4004.05H3709.78C3713.15 4004.05 3714.95 4006.27 3714.95 4010.06V4066.1C3714.95 4070 3712.94 4072.22 3709.67 4072.22H3699.96V4073.8H3766.55L3767.18 4047.53H3765.49C3764.75 4050.9 3763.8 4055.12 3761.48 4059.34C3756.94 4067.47 3750.19 4072.01 3742.38 4072.01H3728.77C3726.34 4072.01 3725.5 4071.06 3725.5 4068.42V4038.35H3729.72C3734.05 4038.35 3737.84 4039.93 3740.8 4043.09C3744.18 4046.58 3745.23 4050.06 3745.23 4057.76H3746.92V4018.19L3745.34 4018.08C3745.02 4030.43 3739.53 4036.55 3729.19 4036.55H3725.5V4007.74C3725.5 4005.42 3726.24 4004.37 3727.93 4004.37H3741.22C3758 4004.37 3762.33 4021.78 3764.02 4028.74H3765.6V4002.47H3700.07V4004.05Z" fill="white"/>
<path d="M3798.86 4004.05H3802.77C3810.89 4004.05 3814.9 4009.75 3814.9 4021.36V4050.69C3814.9 4062.83 3812.79 4072.22 3800.87 4072.22H3798.65V4073.8H3834.74V4072.22H3831.26C3821.45 4072.22 3816.38 4064.94 3816.38 4050.8V4012.28L3859.54 4076.23H3860.81C3860.81 4070.53 3861.97 4065.99 3863.55 4062.19V4024.2C3863.55 4011.23 3865.66 4004.05 3876.11 4004.05H3877.37V4002.47H3844.13V4004.05H3846.14C3858.27 4004.05 3862.07 4013.02 3862.07 4025.89V4060.93L3822.4 4002.47H3798.86V4004.05Z" fill="white"/>
<path d="M3918.32 4076.12C3935.73 4076.12 3950.82 4058.61 3950.82 4038.56C3950.82 4020.72 3936.99 4001.73 3918 4001.73C3899.32 4001.73 3885.82 4021.14 3885.82 4038.56C3885.82 4058.71 3900.91 4076.12 3918.32 4076.12ZM3918.63 4074.33C3905.02 4074.33 3900.27 4064.41 3899.32 4057.97C3898.48 4051.01 3898.16 4037.71 3898.16 4034.86C3898.16 4021.88 3899.32 4003.42 3918.11 4003.42C3928.24 4003.42 3935.83 4009.33 3937.31 4020.19C3937.84 4024.2 3938.47 4035.39 3938.47 4041.51C3938.47 4056.5 3936.57 4064.3 3931.82 4069.26C3928.76 4072.32 3923.49 4074.33 3918.63 4074.33Z" fill="white"/>
<path d="M3954.35 4004.05H3957.83C3961.21 4004.05 3963.74 4006.27 3964.8 4010.06L3983.79 4075.91H3985.06C3985.38 4071.59 3987.17 4066.94 3990.23 4064.2L4005.53 4019.56L4021.89 4075.91H4023.15C4023.47 4071.59 4025.26 4066.94 4028.32 4064.2L4042.46 4022.2C4047.64 4006.9 4051.75 4004.37 4057.13 4004.05V4002.47H4031.07V4004.05H4032.86C4038.98 4004.05 4042.57 4006.9 4042.57 4011.86C4042.57 4015.02 4041.94 4018.72 4040.67 4022.52L4027.9 4060.72L4013.02 4009.22C4012.81 4008.59 4012.71 4007.95 4012.71 4007.43C4012.71 4005.21 4014.39 4004.05 4017.35 4004.05H4024.21V4002.47H3990.55V4004.05H3996.56C4000.04 4004.05 4001.73 4005.84 4003.1 4010.91L4004.58 4016.71L3989.6 4060.72L3974.72 4009.11C3974.51 4008.48 3974.51 4007.85 3974.51 4007.22C3974.51 4005.1 3976.41 4004.05 3980.52 4004.05H3984.11V4002.47H3954.35V4004.05Z" fill="white"/>
</svg>
